HIERARCHY
ROOT Hips
{
	OFFSET -0.001795 -0.223333 0.028219
	CHANNELS 6 Xposition Yposition Zposition Zrotation Yrotation Xrotation 
	JOINT LeftUpLeg
	{
		OFFSET 0.069520 -0.091406 -0.006815
		CHANNELS 3 Zrotation Yrotation Xrotation
		JOINT LeftLeg
		{
			OFFSET 0.034277 -0.375199 -0.004496
			CHANNELS 3 Zrotation Yrotation Xrotation
			JOINT LeftFoot
			{
				OFFSET -0.013596 -0.397961 -0.043693
				CHANNELS 3 Zrotation Yrotation Xrotation
				JOINT LeftToe
				{
					OFFSET 0.026358 -0.055791 0.119288
					CHANNELS 3 Zrotation Yrotation Xrotation
					End Site
					{
						OFFSET 0.000000 0.000000 0.000000
					}
				}
			}
		}
	}
	JOINT RightUpLeg
	{
		OFFSET -0.067670 -0.090522 -0.004320
		CHANNELS 3 Zrotation Yrotation Xrotation
		JOINT RightLeg
		{
			OFFSET -0.038290 -0.382569 -0.008850
			CHANNELS 3 Zrotation Yrotation Xrotation
			JOINT RightFoot
			{
				OFFSET 0.015774 -0.398415 -0.042312
				CHANNELS 3 Zrotation Yrotation Xrotation
				JOINT RightToe
				{
					OFFSET -0.025372 -0.048144 0.123348
					CHANNELS 3 Zrotation Yrotation Xrotation
					End Site
					{
						OFFSET 0.000000 0.000000 0.000000
					}
				}
			}
		}
	}
	JOINT Spine
	{
		OFFSET -0.002533 0.108963 -0.026696
		CHANNELS 3 Zrotation Yrotation Xrotation
		JOINT Spine1
		{
			OFFSET 0.005487 0.135180 0.001092
			CHANNELS 3 Zrotation Yrotation Xrotation
			JOINT Spine2
			{
				OFFSET 0.001457 0.052922 0.025425
				CHANNELS 3 Zrotation Yrotation Xrotation
				JOINT Neck
				{
					OFFSET -0.002778 0.213870 -0.042857
					CHANNELS 3 Zrotation Yrotation Xrotation
					JOINT Head
					{
						OFFSET 0.005152 0.064970 0.051349
						CHANNELS 3 Zrotation Yrotation Xrotation
						End Site
						{
							OFFSET 0.000000 0.000000 0.000000
						}
					}
				}
				JOINT LeftShoulder
				{
					OFFSET 0.078845 0.121749 -0.034090
					CHANNELS 3 Zrotation Yrotation Xrotation
					JOINT LeftArm
					{
						OFFSET 0.090977 0.030469 -0.008868
						CHANNELS 3 Zrotation Yrotation Xrotation
						JOINT LeftForeArm
						{
							OFFSET 0.259612 -0.012772 -0.027456
							CHANNELS 3 Zrotation Yrotation Xrotation
							JOINT LeftHand
							{
								OFFSET 0.249234 0.008986 -0.001171
								CHANNELS 3 Zrotation Yrotation Xrotation
								End Site
								{
									OFFSET 0.000000 0.000000 0.000000
								}
							}
						}
					}
				}
				JOINT RightShoulder
				{
					OFFSET -0.081759 0.118833 -0.038615
					CHANNELS 3 Zrotation Yrotation Xrotation
					JOINT RightArm
					{
						OFFSET -0.096012 0.032551 -0.009143
						CHANNELS 3 Zrotation Yrotation Xrotation
						JOINT RightForeArm
						{
							OFFSET -0.253742 -0.013329 -0.021401
							CHANNELS 3 Zrotation Yrotation Xrotation
							JOINT RightHand
							{
								OFFSET -0.255298 0.007772 -0.005559
								CHANNELS 3 Zrotation Yrotation Xrotation
								End Site
								{
									OFFSET 0.000000 0.000000 0.000000
								}
							}
						}
					}
				}
			}
		}
	}
}
MOTION
Frames: 13
Frame Time: 0.050000
-0.003941 1.042487 0.109657 -2.241141 3.770462 -3.836046 1.137528 0.600837 8.281829 -3.342436 0.285356 6.455431 3.135617 5.424296 -2.789950 0.000000 0.000000 0.000000 -7.080191 0.954018 -32.527098 9.440721 -2.264133 21.296822 -9.702581 -21.763551 18.074414 0.000000 0.000000 0.000000 -1.133824 -0.730720 18.914081 5.166960 -0.439500 -26.902885 -1.267469 -5.630355 28.785638 -0.955253 1.457912 -25.187643 0.000000 0.000000 0.000000 -27.269305 3.731697 -2.794587 -43.294347 -11.951470 -3.789717 -17.985889 -36.960240 8.512050 0.000000 0.000000 0.000000 16.951434 0.381077 -1.385669 49.960549 -3.261004 -8.494665 17.187422 32.655933 6.072890 0.000000 0.000000 0.000000 
-0.003941 1.035125 0.109657 -2.064083 6.155403 -4.052975 1.941210 0.681802 11.776222 -3.003742 0.201510 6.552819 2.656929 2.383477 -6.462611 0.000000 0.000000 0.000000 -7.131463 0.662362 -32.075497 6.118421 -0.960960 9.502661 -8.334623 -19.236687 17.809560 0.000000 0.000000 0.000000 -0.559485 -0.839532 17.925828 4.620119 -0.271452 -27.211560 -2.175738 -7.747506 29.391080 -2.319154 2.150228 -25.446853 0.000000 0.000000 0.000000 -26.630373 3.318423 -2.252513 -43.237120 -13.573910 -3.338857 -17.500448 -37.533177 8.538058 0.000000 0.000000 0.000000 17.552495 0.184891 -1.678244 49.555129 -4.318569 -8.852464 16.001522 32.646341 5.685480 0.000000 0.000000 0.000000 
-0.003941 1.027974 0.109657 -1.733085 7.289552 -4.087766 2.355217 0.740661 15.057315 -2.324081 0.074005 7.043870 2.976091 1.293963 -9.461192 0.000000 0.000000 0.000000 -7.169359 0.519159 -32.123799 5.147824 -0.718975 6.211991 -7.481280 -17.698418 20.140980 0.000000 0.000000 0.000000 -0.415015 -0.836608 17.103463 5.644963 -0.470352 -27.459193 -3.530690 -8.599772 29.048992 -2.447054 2.148405 -23.375013 0.000000 0.000000 0.000000 -27.605332 3.355792 -2.324412 -42.560623 -14.003529 -3.170428 -18.518009 -37.621240 8.903174 0.000000 0.000000 0.000000 17.502532 0.192991 -1.707724 49.930224 -4.765077 -9.058262 14.905524 32.403360 5.321037 0.000000 0.000000 0.000000 
-0.003941 1.024678 0.109657 -1.658210 8.657429 -4.469707 3.122165 0.662017 19.037912 -1.483577 -0.091576 7.732077 2.433658 -0.391083 -9.649689 0.000000 0.000000 0.000000 -6.537713 0.545670 -32.031122 5.073358 -0.832082 10.625608 -7.453587 -17.426915 23.291252 0.000000 0.000000 0.000000 0.530630 -0.947022 16.312939 5.538086 -0.437253 -27.387243 -4.475070 -9.164778 28.881059 -2.113468 1.986838 -23.816479 0.000000 0.000000 0.000000 -28.474282 2.891836 -2.238557 -42.167561 -13.298647 -3.332372 -18.399439 -37.870430 8.847269 0.000000 0.000000 0.000000 19.141999 -0.313034 -2.096611 48.538482 -4.787075 -8.761912 13.162145 32.422045 4.860397 0.000000 0.000000 0.000000 
-0.003941 1.027328 0.109657 -1.814521 9.205671 -3.915357 4.252581 0.413047 20.498709 -0.928922 -0.307224 10.458527 1.704918 0.372153 -5.651048 0.000000 0.000000 0.000000 -6.457568 0.512844 -32.354904 7.349329 -1.666095 16.139847 -7.784722 -17.855598 24.039663 0.000000 0.000000 0.000000 1.191694 -0.844256 13.668639 6.115785 -0.588315 -26.771150 -5.375389 -9.614883 28.780093 -2.016590 1.884663 -22.700844 0.000000 0.000000 0.000000 -28.755372 3.839512 -2.910685 -43.768897 -12.032373 -3.788547 -18.924767 -37.503655 9.006617 0.000000 0.000000 0.000000 19.295702 -0.801974 -2.415021 48.081942 -4.888559 -8.658342 12.445404 34.655608 5.009306 0.000000 0.000000 0.000000 
-0.003941 1.037442 0.109657 -1.850726 7.552023 -3.079607 4.760855 0.413098 19.344157 -0.976024 -0.537317 15.857910 0.620750 0.888741 -0.746810 0.000000 0.000000 0.000000 -5.459500 1.009399 -32.045856 9.303684 -2.421922 20.066945 -7.568229 -17.902435 20.953418 0.000000 0.000000 0.000000 1.542175 -0.734740 11.894969 6.835465 -0.811743 -26.208733 -5.197504 -9.293478 27.809982 -2.621125 2.191240 -23.001449 0.000000 0.000000 0.000000 -29.866318 4.803044 -3.461430 -44.364493 -10.116425 -4.451365 -19.474925 -36.807795 9.087951 0.000000 0.000000 0.000000 18.144539 -0.270481 -2.187339 48.490617 -3.998163 -8.282915 13.732138 36.241953 5.585490 0.000000 0.000000 0.000000 
-0.003941 1.052535 0.109657 -2.786684 6.912790 -2.772083 6.821772 0.037567 15.181609 -2.627169 -0.576992 26.041271 -0.228092 2.815484 6.693567 0.000000 0.000000 0.000000 -3.456944 1.568442 -29.230665 9.488944 -2.531901 21.024729 -7.553375 -18.007641 17.676241 0.000000 0.000000 0.000000 3.214274 -0.829147 10.898867 6.154793 -0.572483 -27.545087 -4.797720 -9.098670 28.885398 -3.721137 2.859787 -23.003340 0.000000 0.000000 0.000000 -29.711085 4.991994 -3.460960 -45.409706 -8.989906 -5.042287 -20.458657 -35.253657 9.069634 0.000000 0.000000 0.000000 16.265120 -0.572054 -2.096615 47.927938 -2.377738 -7.724802 14.901632 38.039388 6.273297 0.000000 0.000000 0.000000 
-0.003941 1.066700 0.109657 -3.450768 6.023788 -2.861290 8.452804 -0.149757 7.511287 -5.842434 0.208771 39.598334 1.172673 7.943845 15.121464 0.000000 0.000000 0.000000 -1.561864 1.956783 -26.233510 9.643789 -2.551423 21.267912 -7.080183 -17.378452 16.358307 0.000000 0.000000 0.000000 3.553369 -0.924784 11.671166 6.949051 -0.732198 -27.956109 -4.287342 -6.730363 28.154949 -2.490978 2.417745 -23.035493 0.000000 0.000000 0.000000 -30.540219 5.128654 -4.419138 -44.777563 -7.708278 -5.145011 -21.969070 -34.108055 9.024307 0.000000 0.000000 0.000000 15.421684 0.250555 -1.196185 47.144772 -1.342752 -7.235183 17.236890 42.164997 8.165874 0.000000 0.000000 0.000000 
-0.003941 1.079841 0.109657 -2.931680 5.060143 -3.372605 8.412474 -0.166622 -0.517275 -8.382775 1.550184 49.826049 4.499340 12.890913 16.042765 0.000000 0.000000 0.000000 -0.637418 1.936483 -22.340308 8.654407 -2.098583 20.311177 -6.792666 -17.032012 15.427494 0.000000 0.000000 0.000000 2.650231 -0.928282 13.197166 6.164032 -0.527594 -28.636736 -2.666914 -4.929736 28.867705 -1.336461 1.953108 -24.629469 0.000000 0.000000 0.000000 -30.423143 4.509961 -4.369552 -44.164801 -7.915652 -4.984464 -22.762743 -34.797983 9.395159 0.000000 0.000000 0.000000 14.961422 1.013101 -0.503068 46.117027 1.331553 -6.288585 19.765098 46.246381 10.403592 0.000000 0.000000 0.000000 
-0.003941 1.091444 0.109657 -2.252071 3.891276 -3.107814 8.538960 -0.256320 -7.298736 -11.286420 3.726879 52.434637 7.472361 16.637138 11.459595 0.000000 0.000000 0.000000 -0.164216 1.836223 -19.561640 7.318701 -1.539736 19.026353 -6.117185 -16.012459 14.385311 0.000000 0.000000 0.000000 1.604828 -0.829233 13.817102 5.793228 -0.497942 -28.015097 -1.133472 -2.187663 28.249608 0.129887 1.424412 -24.621920 0.000000 0.000000 0.000000 -30.690280 3.855781 -4.809974 -43.346011 -6.479093 -5.071240 -23.255523 -35.697074 9.558539 0.000000 0.000000 0.000000 15.206987 1.195023 -0.055032 44.728799 4.128342 -5.187530 20.560101 52.282676 12.810299 0.000000 0.000000 0.000000 
-0.003941 1.100612 0.109657 -1.326448 2.636046 -2.630875 7.786829 -0.418594 -12.699127 -12.216505 4.522176 49.036143 8.582219 18.017835 6.637025 0.000000 0.000000 0.000000 -0.322621 1.685008 -17.775965 6.096077 -1.071038 18.059176 -5.532616 -15.073462 13.058799 0.000000 0.000000 0.000000 0.331785 -0.674976 14.280358 5.476774 -0.407275 -28.396634 -0.049366 0.025477 28.592512 0.383730 1.540961 -24.888872 0.000000 0.000000 0.000000 -29.829537 3.897002 -5.241467 -43.805751 -5.546872 -5.295034 -23.731418 -36.493456 9.827604 0.000000 0.000000 0.000000 15.161774 2.154260 0.709232 43.737576 6.495849 -4.396513 20.825273 57.845969 14.996204 0.000000 0.000000 0.000000 
-0.003941 1.106100 0.109657 -0.891957 1.323603 -1.888726 6.973683 -0.558427 -15.197790 -10.855290 3.519656 39.430668 8.642123 17.973823 4.540190 0.000000 0.000000 0.000000 -0.027540 1.550037 -15.655372 4.996418 -0.671313 16.143584 -4.918889 -13.954632 11.384885 0.000000 0.000000 0.000000 -0.484198 -0.534452 13.958375 5.557606 -0.474283 -27.715980 0.501358 2.183528 28.101769 0.237118 1.895076 -25.167158 0.000000 0.000000 0.000000 -29.129049 3.985011 -5.736287 -44.034967 -4.553406 -5.437898 -23.559729 -36.882135 9.713283 0.000000 0.000000 0.000000 14.038859 1.567380 0.648265 44.512558 8.692153 -3.659903 19.796644 62.603502 16.410295 0.000000 0.000000 0.000000 
-0.003941 1.111316 0.109657 -0.408754 0.211847 -1.382465 6.295346 -0.603483 -14.894878 -7.602327 1.729192 26.829812 6.614127 14.420577 5.168567 0.000000 0.000000 0.000000 -0.039508 1.421840 -14.229938 4.005394 -0.370661 15.080308 -4.696228 -13.533435 10.385222 0.000000 0.000000 0.000000 -1.392917 -0.398218 13.957036 5.793774 -0.535462 -27.622006 0.783668 3.315441 28.145353 0.350168 1.902542 -25.023993 0.000000 0.000000 0.000000 -29.589773 4.754431 -6.497070 -43.606382 -3.673845 -5.650040 -22.987378 -36.772270 9.443057 0.000000 0.000000 0.000000 14.665548 1.564258 0.725178 44.223282 10.151434 -3.203290 20.729504 65.230133 18.078600 0.000000 0.000000 0.000000 
